<svg xmlns="http://www.w3.org/2000/svg" version="1.1" xlink="http://www.w3.org/1999/xlink" xmlns:svgjs="http://svgjs.com/svgjs" width="100%" height="100%" preserveAspectRatio="xMidYMid meet" viewBox="3.870505906888866e-7 4.6446072587968956e-7 300.0065002441406 53.10490036010742" overflow="visible"><defs id="SvgjsDefs17896"></defs><g id="SvgjsG17897" transform="scale(0.6493631292398081)" opacity="1"><g id="SvgjsG17898" class="9Uc-GtJAw" transform="translate(-15.333743085433301, -10.222495390288874) scale(1.0222495390288873)" light-content="false" non-strokable="false" fill="#ff1434"><path d="M21.667 73.809V33.867l28.33-16.188 28.337 16.188V66.13L49.997 82.321 35 73.75V41.604l14.997-8.57L65 41.604v16.788l-15.003 8.571-1.663-.95v-16.67l8.382-4.792-6.719-3.838-8.33 4.763V69.88l8.33 4.762 21.67-12.383V37.737l-21.67-12.379-21.663 12.379v39.88L49.997 90 85 70V30L49.997 10 15 30v40z"></path></g><g id="SvgjsG17899" class="text" transform="translate(279.77110633066997, 65.77374308543332) scale(1)" light-content="false" fill="#ff1434"><path d="M-159.88 -0.33L-159.88 -5.48C-162.65 -5.35 -165.39 -5.28 -168.1 -5.28C-169.26 -5.28 -170.43 -5.29 -171.6 -5.3C-172.76 -5.31 -173.92 -5.35 -175.06 -5.41C-174.98 -8.87 -174.88 -12.25 -174.77 -15.57C-174.66 -18.88 -174.53 -22.23 -174.39 -25.63C-174.24 -29.03 -174.08 -32.54 -173.89 -36.15C-173.7 -39.76 -173.49 -43.6 -173.25 -47.67L-181.17 -47.34C-181 -41.99 -180.86 -36.68 -180.76 -31.41C-180.66 -26.14 -180.61 -20.83 -180.61 -15.48C-180.61 -12.82 -180.62 -10.17 -180.64 -7.53C-180.67 -4.89 -180.7 -2.24 -180.74 0.4Z M-131.65 -46.98L-155.59 -46.98L-155.59 -0.26L-132.41 -0.26L-132.41 -5.48L-149.97 -5.48L-149.97 -17.43L-135.45 -17.43L-135.45 -22.32L-149.78 -22.32L-149.78 -42.45L-131.65 -42.45Z M-107.49 0.46L-100.85 0.46C-102.9 -7.35 -104.8 -15.26 -106.55 -23.27C-108.3 -31.28 -109.96 -39.26 -111.55 -47.21L-120.07 -47.04C-120.86 -43.13 -121.64 -39.17 -122.41 -35.19C-123.18 -31.21 -123.96 -27.22 -124.75 -23.24C-125.55 -19.26 -126.37 -15.28 -127.21 -11.32C-128.06 -7.36 -128.97 -3.43 -129.94 0.46L-123.76 0.4C-123.52 -1.06 -123.27 -2.51 -123.02 -3.96C-122.77 -5.41 -122.5 -6.89 -122.21 -8.39C-121.07 -8.43 -119.92 -8.46 -118.78 -8.48C-117.63 -8.51 -116.5 -8.52 -115.38 -8.52C-114.32 -8.52 -113.28 -8.51 -112.24 -8.48C-111.21 -8.46 -110.16 -8.43 -109.11 -8.39ZM-115.58 -41.17C-114.59 -36.52 -113.64 -31.87 -112.74 -27.2C-111.83 -22.54 -110.94 -17.84 -110.06 -13.11C-110.99 -13.06 -111.9 -13.05 -112.8 -13.07C-113.71 -13.09 -114.63 -13.11 -115.58 -13.11C-116.57 -13.11 -117.53 -13.09 -118.48 -13.07C-119.43 -13.05 -120.38 -13.06 -121.35 -13.11C-120.45 -17.82 -119.53 -22.51 -118.58 -27.19C-117.63 -31.86 -116.63 -36.52 -115.58 -41.17Z M-81.64 0.4L-74.61 -0.2C-76.21 -2.95 -77.72 -5.69 -79.13 -8.42C-80.54 -11.15 -81.85 -13.91 -83.06 -16.7C-81.41 -17.3 -79.82 -18.08 -78.29 -19.05C-76.76 -20.02 -75.39 -21.17 -74.18 -22.5C-72.97 -23.83 -71.99 -25.34 -71.24 -27.02C-70.49 -28.7 -70.06 -30.56 -69.95 -32.58C-69.95 -35.62 -70.37 -38.19 -71.19 -40.29C-72.02 -42.39 -73.13 -44.1 -74.54 -45.41C-75.95 -46.72 -77.6 -47.66 -79.48 -48.23C-81.36 -48.8 -83.34 -49.09 -85.44 -49.09C-86.01 -49.09 -86.76 -49.07 -87.68 -49.04C-88.6 -49.01 -89.61 -48.92 -90.7 -48.79C-91.79 -48.66 -92.92 -48.47 -94.08 -48.21C-95.25 -47.96 -96.36 -47.63 -97.42 -47.21C-97.31 -43.86 -97.22 -40.54 -97.16 -37.25C-97.09 -33.96 -97.06 -30.65 -97.06 -27.3C-97.06 -22.68 -97.11 -18.1 -97.2 -13.55C-97.3 -9.01 -97.42 -4.45 -97.55 0.13L-92.6 0.13C-92.53 -2.49 -92.46 -5.09 -92.38 -7.68C-92.31 -10.26 -92.2 -12.86 -92.07 -15.48C-91.79 -15.44 -91.51 -15.42 -91.25 -15.42L-90.45 -15.42C-89.42 -15.42 -88.35 -15.48 -87.25 -15.61ZM-90.39 -44.43C-89.05 -44.7 -87.82 -44.83 -86.72 -44.83C-85.14 -44.83 -83.8 -44.57 -82.7 -44.04C-81.6 -43.51 -80.68 -42.84 -79.96 -42.04C-79.23 -41.24 -78.66 -40.35 -78.26 -39.38C-77.85 -38.42 -77.55 -37.49 -77.35 -36.59C-77.15 -35.7 -77.03 -34.92 -76.98 -34.23C-76.94 -33.55 -76.92 -33.09 -76.92 -32.85C-76.92 -32.8 -76.95 -32.44 -77.02 -31.76C-77.08 -31.08 -77.27 -30.23 -77.56 -29.22C-77.86 -28.2 -78.32 -27.12 -78.93 -25.96C-79.55 -24.81 -80.41 -23.74 -81.52 -22.75C-82.64 -21.76 -84.03 -20.93 -85.72 -20.27C-87.4 -19.61 -89.45 -19.28 -91.87 -19.28L-91.94 -19.28C-91.72 -23.46 -91.49 -27.64 -91.25 -31.82C-91 -36.01 -90.72 -40.21 -90.39 -44.43Z M-38.43 -47.11L-46.15 -47.21C-46.11 -45.69 -46.07 -44.13 -46.05 -42.54C-46.03 -40.94 -46.02 -39.32 -46.02 -37.67C-46.02 -35.33 -46.04 -32.97 -46.07 -30.57C-46.1 -28.17 -46.15 -25.83 -46.2 -23.54C-46.26 -21.25 -46.32 -19.05 -46.38 -16.95C-46.45 -14.85 -46.53 -12.92 -46.61 -11.16L-58.4 -46.65L-65.76 -46.78C-65.43 -35.88 -65.27 -24.98 -65.27 -14.06L-65.27 -7C-65.27 -4.67 -65.29 -2.33 -65.33 0L-60.02 -0.07C-59.95 -11 -59.65 -21.93 -59.12 -32.85L-46.75 0.07L-41.5 0.07C-41.34 -7.88 -41.02 -15.76 -40.52 -23.59C-40.03 -31.41 -39.33 -39.25 -38.43 -47.11Z M9.21 -38C9.21 -38.55 9.14 -39.23 9.01 -40.04C8.88 -40.86 8.64 -41.72 8.29 -42.64C7.93 -43.55 7.44 -44.46 6.8 -45.36C6.16 -46.26 5.33 -47.08 4.29 -47.82C3.26 -48.56 2 -49.17 0.53 -49.65C-0.95 -50.13 -2.68 -50.4 -4.69 -50.44C-6.6 -50.44 -8.29 -50.22 -9.76 -49.78C-11.22 -49.34 -12.49 -48.75 -13.57 -48C-14.65 -47.25 -15.54 -46.38 -16.26 -45.38C-16.97 -44.37 -17.55 -43.31 -17.98 -42.17C-18.4 -41.04 -18.71 -39.88 -18.9 -38.69C-19.09 -37.5 -19.18 -36.35 -19.18 -35.22C-19.18 -33.46 -18.89 -31.88 -18.31 -30.47C-17.72 -29.06 -16.96 -27.78 -16.01 -26.62C-15.06 -25.47 -13.99 -24.41 -12.78 -23.44C-11.57 -22.47 -10.33 -21.55 -9.06 -20.67C-7.8 -19.79 -6.56 -18.93 -5.35 -18.09C-4.14 -17.25 -3.06 -16.39 -2.11 -15.48C-1.17 -14.58 -0.4 -13.62 0.18 -12.59C0.76 -11.57 1.06 -10.44 1.06 -9.21C1.06 -8.02 0.84 -7.03 0.41 -6.22C-0.02 -5.42 -0.56 -4.77 -1.2 -4.28C-1.85 -3.78 -2.56 -3.43 -3.32 -3.22C-4.08 -3.01 -4.79 -2.91 -5.45 -2.91C-6.02 -2.91 -6.71 -3 -7.51 -3.19C-8.31 -3.37 -9.08 -3.8 -9.82 -4.46C-10.56 -5.12 -11.19 -6.09 -11.7 -7.36C-12.22 -8.64 -12.48 -10.35 -12.48 -12.51L-18.68 -12.78C-18.68 -10.82 -18.36 -9.02 -17.71 -7.38C-17.06 -5.74 -16.14 -4.32 -14.94 -3.14C-13.74 -1.95 -12.29 -1.02 -10.58 -0.35C-8.87 0.32 -6.97 0.66 -4.85 0.66C-2.67 0.66 -0.83 0.37 0.68 -0.2C2.18 -0.77 3.41 -1.53 4.36 -2.48C5.3 -3.42 5.99 -4.51 6.42 -5.74C6.85 -6.98 7.06 -8.24 7.06 -9.54C7.06 -10.73 6.87 -11.85 6.47 -12.91C6.07 -13.96 5.44 -15.03 4.56 -16.09C3.68 -17.16 2.53 -18.26 1.11 -19.38C-0.31 -20.5 -2.05 -21.72 -4.09 -23.04C-5.28 -23.81 -6.39 -24.66 -7.43 -25.58C-8.46 -26.51 -9.37 -27.5 -10.15 -28.57C-10.93 -29.64 -11.55 -30.77 -12 -31.97C-12.45 -33.17 -12.68 -34.43 -12.68 -35.75C-12.68 -37.09 -12.51 -38.41 -12.18 -39.7C-11.85 -40.98 -11.37 -42.14 -10.73 -43.16C-10.09 -44.19 -9.3 -45.01 -8.37 -45.64C-7.43 -46.27 -6.35 -46.58 -5.12 -46.58C-4.08 -46.58 -3.1 -46.38 -2.16 -45.97C-1.23 -45.56 -0.41 -44.95 0.3 -44.14C1 -43.32 1.56 -42.32 1.98 -41.13C2.4 -39.94 2.61 -38.56 2.61 -36.97C2.61 -36.2 2.55 -35.38 2.44 -34.51C2.33 -33.64 2.16 -32.74 1.91 -31.79L8.02 -30.97C8.33 -31.89 8.56 -32.78 8.7 -33.64C8.84 -34.5 8.96 -35.25 9.05 -35.88C9.13 -36.63 9.19 -37.34 9.21 -38Z M41.2 -32.58C41.2 -35.62 40.79 -38.19 39.96 -40.29C39.14 -42.39 38.02 -44.1 36.61 -45.41C35.2 -46.72 33.56 -47.66 31.68 -48.23C29.79 -48.8 27.81 -49.09 25.72 -49.09C25.14 -49.09 24.4 -49.07 23.47 -49.04C22.55 -49.01 21.54 -48.92 20.45 -48.79C19.36 -48.66 18.23 -48.47 17.07 -48.21C15.9 -47.96 14.79 -47.63 13.73 -47.21C13.84 -43.86 13.93 -40.54 14 -37.25C14.06 -33.96 14.1 -30.65 14.1 -27.3C14.1 -22.68 14.05 -18.1 13.95 -13.55C13.85 -9.01 13.73 -4.45 13.6 0.13L18.55 0.13C18.62 -2.49 18.69 -5.09 18.77 -7.68C18.84 -10.26 18.95 -12.86 19.08 -15.48C19.37 -15.44 19.64 -15.42 19.91 -15.42L20.7 -15.42C22.15 -15.42 23.66 -15.58 25.22 -15.91C26.78 -16.24 28.31 -16.74 29.79 -17.4C31.28 -18.06 32.69 -18.87 34.04 -19.84C35.38 -20.81 36.57 -21.93 37.6 -23.21C38.64 -24.48 39.47 -25.9 40.11 -27.47C40.75 -29.03 41.11 -30.73 41.2 -32.58ZM20.76 -44.43C22.11 -44.7 23.33 -44.83 24.43 -44.83C26.01 -44.83 27.36 -44.57 28.46 -44.04C29.56 -43.51 30.47 -42.84 31.2 -42.04C31.92 -41.24 32.49 -40.35 32.9 -39.38C33.3 -38.42 33.61 -37.49 33.8 -36.59C34 -35.7 34.12 -34.92 34.17 -34.23C34.21 -33.55 34.23 -33.09 34.23 -32.85C34.23 -32.8 34.2 -32.44 34.13 -31.76C34.07 -31.08 33.89 -30.23 33.59 -29.22C33.29 -28.2 32.84 -27.12 32.22 -25.96C31.6 -24.81 30.74 -23.74 29.63 -22.75C28.52 -21.76 27.12 -20.93 25.44 -20.27C23.75 -19.61 21.7 -19.28 19.28 -19.28L19.21 -19.28C19.43 -23.46 19.66 -27.64 19.91 -31.82C20.15 -36.01 20.43 -40.21 20.76 -44.43Z M63.91 0.46L70.55 0.46C68.5 -7.35 66.6 -15.26 64.85 -23.27C63.1 -31.28 61.44 -39.26 59.85 -47.21L51.33 -47.04C50.54 -43.13 49.76 -39.17 48.99 -35.19C48.22 -31.21 47.44 -27.22 46.65 -23.24C45.85 -19.26 45.03 -15.28 44.19 -11.32C43.34 -7.36 42.43 -3.43 41.46 0.46L47.64 0.4C47.88 -1.06 48.13 -2.51 48.38 -3.96C48.63 -5.41 48.9 -6.89 49.19 -8.39C50.33 -8.43 51.48 -8.46 52.62 -8.48C53.77 -8.51 54.9 -8.52 56.02 -8.52C57.08 -8.52 58.12 -8.51 59.16 -8.48C60.19 -8.46 61.24 -8.43 62.29 -8.39ZM55.82 -41.17C56.81 -36.52 57.76 -31.87 58.66 -27.2C59.57 -22.54 60.46 -17.84 61.34 -13.11C60.41 -13.06 59.5 -13.05 58.6 -13.07C57.69 -13.09 56.77 -13.11 55.82 -13.11C54.83 -13.11 53.86 -13.09 52.92 -13.07C51.97 -13.05 51.01 -13.06 50.05 -13.11C50.95 -17.82 51.87 -22.51 52.82 -27.19C53.77 -31.86 54.77 -36.52 55.82 -41.17Z M101.12 -47.11L93.39 -47.21C93.44 -45.69 93.47 -44.13 93.49 -42.54C93.51 -40.94 93.52 -39.32 93.52 -37.67C93.52 -35.33 93.51 -32.97 93.47 -30.57C93.44 -28.17 93.4 -25.83 93.34 -23.54C93.29 -21.25 93.23 -19.05 93.16 -16.95C93.09 -14.85 93.02 -12.92 92.93 -11.16L81.14 -46.65L73.78 -46.78C74.11 -35.88 74.28 -24.98 74.28 -14.06L74.28 -7C74.28 -4.67 74.26 -2.33 74.21 0L79.53 -0.07C79.59 -11 79.89 -21.93 80.42 -32.85L92.8 0.07L98.05 0.07C98.2 -7.88 98.53 -15.76 99.02 -23.59C99.52 -31.41 100.21 -39.25 101.12 -47.11Z M119.08 -0.53L119.08 -5.88C118.13 -5.77 117.2 -5.68 116.29 -5.63C115.37 -5.57 114.43 -5.55 113.46 -5.55C113.75 -11.91 114.08 -18.23 114.47 -24.51C114.86 -30.79 115.29 -37.12 115.77 -43.48C116.52 -43.54 117.27 -43.6 118 -43.66C118.74 -43.71 119.48 -43.76 120.23 -43.81L120.3 -48.13C119 -48.09 117.71 -48.07 116.42 -48.07L112.54 -48.07L108.58 -48.07C107.26 -48.07 105.94 -48.09 104.62 -48.13L104.95 -42.19L109.14 -42.78C109.18 -41 109.2 -39.23 109.2 -37.47L109.2 -32.19C109.2 -27.7 109.18 -23.24 109.12 -18.82C109.07 -14.39 108.98 -9.97 108.87 -5.55C108.19 -5.55 107.5 -5.56 106.79 -5.58C106.09 -5.6 105.39 -5.63 104.68 -5.68L104.62 -0.53Z M151.33 -38C151.33 -38.55 151.26 -39.23 151.13 -40.04C151 -40.86 150.76 -41.72 150.4 -42.64C150.05 -43.55 149.56 -44.46 148.92 -45.36C148.28 -46.26 147.44 -47.08 146.41 -47.82C145.37 -48.56 144.12 -49.17 142.65 -49.65C141.17 -50.13 139.43 -50.4 137.43 -50.44C135.52 -50.44 133.83 -50.22 132.36 -49.78C130.9 -49.34 129.63 -48.75 128.55 -48C127.47 -47.25 126.57 -46.38 125.86 -45.38C125.14 -44.37 124.57 -43.31 124.14 -42.17C123.71 -41.04 123.41 -39.88 123.22 -38.69C123.03 -37.5 122.94 -36.35 122.94 -35.22C122.94 -33.46 123.23 -31.88 123.81 -30.47C124.4 -29.06 125.16 -27.78 126.11 -26.62C127.05 -25.47 128.13 -24.41 129.34 -23.44C130.55 -22.47 131.79 -21.55 133.06 -20.67C134.32 -19.79 135.56 -18.93 136.77 -18.09C137.98 -17.25 139.06 -16.39 140 -15.48C140.95 -14.58 141.72 -13.62 142.3 -12.59C142.88 -11.57 143.17 -10.44 143.17 -9.21C143.17 -8.02 142.96 -7.03 142.53 -6.22C142.1 -5.42 141.56 -4.77 140.91 -4.28C140.26 -3.78 139.56 -3.43 138.8 -3.22C138.04 -3.01 137.33 -2.91 136.67 -2.91C136.1 -2.91 135.41 -3 134.61 -3.19C133.8 -3.37 133.03 -3.8 132.3 -4.46C131.56 -5.12 130.93 -6.09 130.41 -7.36C129.9 -8.64 129.64 -10.35 129.64 -12.51L123.43 -12.78C123.43 -10.82 123.76 -9.02 124.41 -7.38C125.06 -5.74 125.98 -4.32 127.18 -3.14C128.38 -1.95 129.83 -1.02 131.54 -0.35C133.24 0.32 135.15 0.66 137.26 0.66C139.44 0.66 141.29 0.37 142.79 -0.2C144.3 -0.77 145.53 -1.53 146.48 -2.48C147.42 -3.42 148.11 -4.51 148.54 -5.74C148.97 -6.98 149.18 -8.24 149.18 -9.54C149.18 -10.73 148.98 -11.85 148.59 -12.91C148.19 -13.96 147.55 -15.03 146.67 -16.09C145.79 -17.16 144.64 -18.26 143.22 -19.38C141.8 -20.5 140.07 -21.72 138.02 -23.04C136.84 -23.81 135.72 -24.66 134.69 -25.58C133.66 -26.51 132.75 -27.5 131.97 -28.57C131.19 -29.64 130.57 -30.77 130.12 -31.97C129.67 -33.17 129.44 -34.43 129.44 -35.75C129.44 -37.09 129.61 -38.41 129.94 -39.7C130.27 -40.98 130.75 -42.14 131.39 -43.16C132.03 -44.19 132.81 -45.01 133.75 -45.64C134.68 -46.27 135.77 -46.58 137 -46.58C138.04 -46.58 139.02 -46.38 139.96 -45.97C140.89 -45.56 141.71 -44.95 142.41 -44.14C143.12 -43.32 143.68 -42.32 144.1 -41.13C144.52 -39.94 144.73 -38.56 144.73 -36.97C144.73 -36.2 144.67 -35.38 144.56 -34.51C144.45 -33.64 144.27 -32.74 144.03 -31.79L150.14 -30.97C150.45 -31.89 150.67 -32.78 150.82 -33.64C150.96 -34.5 151.08 -35.25 151.16 -35.88C151.25 -36.63 151.31 -37.34 151.33 -38Z M162.95 -47.27L155.85 -47.41C156 -39.59 156.11 -31.81 156.18 -24.05C156.25 -16.29 156.28 -8.47 156.28 -0.59L161.4 -0.66C161.4 -5.02 161.46 -9.4 161.59 -13.8L174.47 -13.8L174.17 -0.53L179.32 -0.53C179.61 -8.41 180 -16.29 180.51 -24.16C181.02 -32.04 181.59 -39.9 182.23 -47.74L174.8 -47.8C174.8 -38.21 174.73 -28.65 174.6 -19.15L161.76 -18.78C162.02 -28.2 162.42 -37.7 162.95 -47.27Z"></path></g></g></svg>