<?xml version="1.0" encoding="UTF-8"?>
<svg overflow="visible" version="1.1" viewBox="3.8705e-7 4.6446e-7 300.01 53.105" xlink="http://www.w3.org/1999/xlink" xmlns="http://www.w3.org/2000/svg">
<g transform="scale(.64936)" fill="#ff1434">
<g class="9Uc-GtJAw" transform="translate(-15.334 -10.222) scale(1.0222)" light-content="false" non-strokable="false">
<path d="M21.667 73.809V33.867l28.33-16.188 28.337 16.188V66.13L49.997 82.321 35 73.75V41.604l14.997-8.57L65 41.604v16.788l-15.003 8.571-1.663-.95v-16.67l8.382-4.792-6.719-3.838-8.33 4.763V69.88l8.33 4.762 21.67-12.383V37.737l-21.67-12.379-21.663 12.379v39.88L49.997 90 85 70V30L49.997 10 15 30v40z"/>
</g>
<g class="text" transform="translate(279.77 65.774) scale(1)" light-content="false">
<path d="m-159.88-0.33v-5.15c-2.77 0.13-5.51 0.2-8.22 0.2-1.16 0-2.33-0.01-3.5-0.02-1.16-0.01-2.32-0.05-3.46-0.11 0.08-3.46 0.18-6.84 0.29-10.16 0.11-3.31 0.24-6.66 0.38-10.06 0.15-3.4 0.31-6.91 0.5-10.52s0.4-7.45 0.64-11.52l-7.92 0.33c0.17 5.35 0.31 10.66 0.41 15.93s0.15 10.58 0.15 15.93c0 2.66-0.01 5.31-0.03 7.95-0.03 2.64-0.06 5.29-0.1 7.93zm28.23-46.65h-23.94v46.72h23.18v-5.22h-17.56v-11.95h14.52v-4.89h-14.33v-20.13h18.13zm24.16 47.44h6.64c-2.05-7.81-3.95-15.72-5.7-23.73s-3.41-15.99-5-23.94l-8.52 0.17c-0.79 3.91-1.57 7.87-2.34 11.85s-1.55 7.97-2.34 11.95c-0.8 3.98-1.62 7.96-2.46 11.92-0.85 3.96-1.76 7.89-2.73 11.78l6.18-0.06c0.24-1.46 0.49-2.91 0.74-4.36s0.52-2.93 0.81-4.43c1.14-0.04 2.29-0.07 3.43-0.09 1.15-0.03 2.28-0.04 3.4-0.04 1.06 0 2.1 0.01 3.14 0.04 1.03 0.02 2.08 0.05 3.13 0.09zm-8.09-41.63c0.99 4.65 1.94 9.3 2.84 13.97 0.91 4.66 1.8 9.36 2.68 14.09-0.93 0.05-1.84 0.06-2.74 0.04-0.91-0.02-1.83-0.04-2.78-0.04-0.99 0-1.95 0.02-2.9 0.04s-1.9 0.01-2.87-0.04c0.9-4.71 1.82-9.4 2.77-14.08 0.95-4.67 1.95-9.33 3-13.98zm33.94 41.57 7.03-0.6c-1.6-2.75-3.11-5.49-4.52-8.22s-2.72-5.49-3.93-8.28c1.65-0.6 3.24-1.38 4.77-2.35s2.9-2.12 4.11-3.45 2.19-2.84 2.94-4.52 1.18-3.54 1.29-5.56c0-3.04-0.42-5.61-1.24-7.71-0.83-2.1-1.94-3.81-3.35-5.12s-3.06-2.25-4.94-2.82-3.86-0.86-5.96-0.86c-0.57 0-1.32 0.02-2.24 0.05s-1.93 0.12-3.02 0.25-2.22 0.32-3.38 0.58c-1.17 0.25-2.28 0.58-3.34 1 0.11 3.35 0.2 6.67 0.26 9.96 0.07 3.29 0.1 6.6 0.1 9.95 0 4.62-0.05 9.2-0.14 13.75-0.1 4.54-0.22 9.1-0.35 13.68h4.95c0.07-2.62 0.14-5.22 0.22-7.81 0.07-2.58 0.18-5.18 0.31-7.8 0.28 0.04 0.56 0.06 0.82 0.06h0.8c1.03 0 2.1-0.06 3.2-0.19zm-8.75-44.83c1.34-0.27 2.57-0.4 3.67-0.4 1.58 0 2.92 0.26 4.02 0.79s2.02 1.2 2.74 2c0.73 0.8 1.3 1.69 1.7 2.66 0.41 0.96 0.71 1.89 0.91 2.79 0.2 0.89 0.32 1.67 0.37 2.36 0.04 0.68 0.06 1.14 0.06 1.38 0 0.05-0.03 0.41-0.1 1.09-0.06 0.68-0.25 1.53-0.54 2.54-0.3 1.02-0.76 2.1-1.37 3.26-0.62 1.15-1.48 2.22-2.59 3.21-1.12 0.99-2.51 1.82-4.2 2.48-1.68 0.66-3.73 0.99-6.15 0.99h-0.07c0.22-4.18 0.45-8.36 0.69-12.54 0.25-4.19 0.53-8.39 0.86-12.61zm51.96-2.68-7.72-0.1c0.04 1.52 0.08 3.08 0.1 4.67 0.02 1.6 0.03 3.22 0.03 4.87 0 2.34-0.02 4.7-0.05 7.1s-0.08 4.74-0.13 7.03c-0.06 2.29-0.12 4.49-0.18 6.59-0.07 2.1-0.15 4.03-0.23 5.79l-11.79-35.49-7.36-0.13c0.33 10.9 0.49 21.8 0.49 32.72v7.06c0 2.33-0.02 4.67-0.06 7l5.31-0.07c0.07-10.93 0.37-21.86 0.9-32.78l12.37 32.92h5.25c0.16-7.95 0.48-15.83 0.98-23.66 0.49-7.82 1.19-15.66 2.09-23.52zm47.64 9.11c0-0.55-0.07-1.23-0.2-2.04-0.13-0.82-0.37-1.68-0.72-2.6-0.36-0.91-0.85-1.82-1.49-2.72s-1.47-1.72-2.51-2.46c-1.03-0.74-2.29-1.35-3.76-1.83-1.48-0.48-3.21-0.75-5.22-0.79-1.91 0-3.6 0.22-5.07 0.66-1.46 0.44-2.73 1.03-3.81 1.78s-1.97 1.62-2.69 2.62c-0.71 1.01-1.29 2.07-1.72 3.21-0.42 1.13-0.73 2.29-0.92 3.48s-0.28 2.34-0.28 3.47c0 1.76 0.29 3.34 0.87 4.75 0.59 1.41 1.35 2.69 2.3 3.85 0.95 1.15 2.02 2.21 3.23 3.18s2.45 1.89 3.72 2.77c1.26 0.88 2.5 1.74 3.71 2.58s2.29 1.7 3.24 2.61c0.94 0.9 1.71 1.86 2.29 2.89 0.58 1.02 0.88 2.15 0.88 3.38 0 1.19-0.22 2.18-0.65 2.99-0.43 0.8-0.97 1.45-1.61 1.94-0.65 0.5-1.36 0.85-2.12 1.06s-1.47 0.31-2.13 0.31c-0.57 0-1.26-0.09-2.06-0.28-0.8-0.18-1.57-0.61-2.31-1.27s-1.37-1.63-1.88-2.9c-0.52-1.28-0.78-2.99-0.78-5.15l-6.2-0.27c0 1.96 0.32 3.76 0.97 5.4s1.57 3.06 2.77 4.24c1.2 1.19 2.65 2.12 4.36 2.79s3.61 1.01 5.73 1.01c2.18 0 4.02-0.29 5.53-0.86 1.5-0.57 2.73-1.33 3.68-2.28 0.94-0.94 1.63-2.03 2.06-3.26 0.43-1.24 0.64-2.5 0.64-3.8 0-1.19-0.19-2.31-0.59-3.37-0.4-1.05-1.03-2.12-1.91-3.18-0.88-1.07-2.03-2.17-3.45-3.29s-3.16-2.34-5.2-3.66c-1.19-0.77-2.3-1.62-3.34-2.54-1.03-0.93-1.94-1.92-2.72-2.99s-1.4-2.2-1.85-3.4-0.68-2.46-0.68-3.78c0-1.34 0.17-2.66 0.5-3.95 0.33-1.28 0.81-2.44 1.45-3.46 0.64-1.03 1.43-1.85 2.36-2.48 0.94-0.63 2.02-0.94 3.25-0.94 1.04 0 2.02 0.2 2.96 0.61 0.93 0.41 1.75 1.02 2.46 1.83 0.7 0.82 1.26 1.82 1.68 3.01s0.63 2.57 0.63 4.16c0 0.77-0.06 1.59-0.17 2.46s-0.28 1.77-0.53 2.72l6.11 0.82c0.31-0.92 0.54-1.81 0.68-2.67s0.26-1.61 0.35-2.24c0.08-0.75 0.14-1.46 0.16-2.12zm31.99 5.42c0-3.04-0.41-5.61-1.24-7.71-0.82-2.1-1.94-3.81-3.35-5.12s-3.05-2.25-4.93-2.82c-1.89-0.57-3.87-0.86-5.96-0.86-0.58 0-1.32 0.02-2.25 0.05-0.92 0.03-1.93 0.12-3.02 0.25s-2.22 0.32-3.38 0.58c-1.17 0.25-2.28 0.58-3.34 1 0.11 3.35 0.2 6.67 0.27 9.96 0.06 3.29 0.1 6.6 0.1 9.95 0 4.62-0.05 9.2-0.15 13.75-0.1 4.54-0.22 9.1-0.35 13.68h4.95c0.07-2.62 0.14-5.22 0.22-7.81 0.07-2.58 0.18-5.18 0.31-7.8 0.29 0.04 0.56 0.06 0.83 0.06h0.79c1.45 0 2.96-0.16 4.52-0.49s3.09-0.83 4.57-1.49c1.49-0.66 2.9-1.47 4.25-2.44 1.34-0.97 2.53-2.09 3.56-3.37 1.04-1.27 1.87-2.69 2.51-4.26 0.64-1.56 1-3.26 1.09-5.11zm-20.44-11.85c1.35-0.27 2.57-0.4 3.67-0.4 1.58 0 2.93 0.26 4.03 0.79s2.01 1.2 2.74 2c0.72 0.8 1.29 1.69 1.7 2.66 0.4 0.96 0.71 1.89 0.9 2.79 0.2 0.89 0.32 1.67 0.37 2.36 0.04 0.68 0.06 1.14 0.06 1.38 0 0.05-0.03 0.41-0.1 1.09-0.06 0.68-0.24 1.53-0.54 2.54-0.3 1.02-0.75 2.1-1.37 3.26-0.62 1.15-1.48 2.22-2.59 3.21s-2.51 1.82-4.19 2.48c-1.69 0.66-3.74 0.99-6.16 0.99h-0.07c0.22-4.18 0.45-8.36 0.7-12.54 0.24-4.19 0.52-8.39 0.85-12.61zm43.15 44.89h6.64c-2.05-7.81-3.95-15.72-5.7-23.73s-3.41-15.99-5-23.94l-8.52 0.17c-0.79 3.91-1.57 7.87-2.34 11.85s-1.55 7.97-2.34 11.95c-0.8 3.98-1.62 7.96-2.46 11.92-0.85 3.96-1.76 7.89-2.73 11.78l6.18-0.06c0.24-1.46 0.49-2.91 0.74-4.36s0.52-2.93 0.81-4.43c1.14-0.04 2.29-0.07 3.43-0.09 1.15-0.03 2.28-0.04 3.4-0.04 1.06 0 2.1 0.01 3.14 0.04 1.03 0.02 2.08 0.05 3.13 0.09zm-8.09-41.63c0.99 4.65 1.94 9.3 2.84 13.97 0.91 4.66 1.8 9.36 2.68 14.09-0.93 0.05-1.84 0.06-2.74 0.04-0.91-0.02-1.83-0.04-2.78-0.04-0.99 0-1.96 0.02-2.9 0.04-0.95 0.02-1.91 0.01-2.87-0.04 0.9-4.71 1.82-9.4 2.77-14.08 0.95-4.67 1.95-9.33 3-13.98zm45.3-5.94-7.73-0.1c0.05 1.52 0.08 3.08 0.1 4.67 0.02 1.6 0.03 3.22 0.03 4.87 0 2.34-0.01 4.7-0.05 7.1-0.03 2.4-0.07 4.74-0.13 7.03-0.05 2.29-0.11 4.49-0.18 6.59s-0.14 4.03-0.23 5.79l-11.79-35.49-7.36-0.13c0.33 10.9 0.5 21.8 0.5 32.72v7.06c0 2.33-0.02 4.67-0.07 7l5.32-0.07c0.06-10.93 0.36-21.86 0.89-32.78l12.38 32.92h5.25c0.15-7.95 0.48-15.83 0.97-23.66 0.5-7.82 1.19-15.66 2.1-23.52zm17.96 46.58v-5.35c-0.95 0.11-1.88 0.2-2.79 0.25-0.92 0.06-1.86 0.08-2.83 0.08 0.29-6.36 0.62-12.68 1.01-18.96s0.82-12.61 1.3-18.97c0.75-0.06 1.5-0.12 2.23-0.18 0.74-0.05 1.48-0.1 2.23-0.15l0.07-4.32c-1.3 0.04-2.59 0.06-3.88 0.06h-3.88-3.96c-1.32 0-2.64-0.02-3.96-0.06l0.33 5.94 4.19-0.59c0.04 1.78 0.06 3.55 0.06 5.31v5.28c0 4.49-0.02 8.95-0.08 13.37-0.05 4.43-0.14 8.85-0.25 13.27-0.68 0-1.37-0.01-2.08-0.03-0.7-0.02-1.4-0.05-2.11-0.1l-0.06 5.15zm32.25-37.47c0-0.55-0.07-1.23-0.2-2.04-0.13-0.82-0.37-1.68-0.73-2.6-0.35-0.91-0.84-1.82-1.48-2.72s-1.48-1.72-2.51-2.46c-1.04-0.74-2.29-1.35-3.76-1.83-1.48-0.48-3.22-0.75-5.22-0.79-1.91 0-3.6 0.22-5.07 0.66-1.46 0.44-2.73 1.03-3.81 1.78s-1.98 1.62-2.69 2.62c-0.72 1.01-1.29 2.07-1.72 3.21-0.43 1.13-0.73 2.29-0.92 3.48s-0.28 2.34-0.28 3.47c0 1.76 0.29 3.34 0.87 4.75 0.59 1.41 1.35 2.69 2.3 3.85 0.94 1.15 2.02 2.21 3.23 3.18s2.45 1.89 3.72 2.77c1.26 0.88 2.5 1.74 3.71 2.58s2.29 1.7 3.23 2.61c0.95 0.9 1.72 1.86 2.3 2.89 0.58 1.02 0.87 2.15 0.87 3.38 0 1.19-0.21 2.18-0.64 2.99-0.43 0.8-0.97 1.45-1.62 1.94-0.65 0.5-1.35 0.85-2.11 1.06s-1.47 0.31-2.13 0.31c-0.57 0-1.26-0.09-2.06-0.28-0.81-0.18-1.58-0.61-2.31-1.27-0.74-0.66-1.37-1.63-1.89-2.9-0.51-1.28-0.77-2.99-0.77-5.15l-6.21-0.27c0 1.96 0.33 3.76 0.98 5.4s1.57 3.06 2.77 4.24c1.2 1.19 2.65 2.12 4.36 2.79 1.7 0.67 3.61 1.01 5.72 1.01 2.18 0 4.03-0.29 5.53-0.86 1.51-0.57 2.74-1.33 3.69-2.28 0.94-0.94 1.63-2.03 2.06-3.26 0.43-1.24 0.64-2.5 0.64-3.8 0-1.19-0.2-2.31-0.59-3.37-0.4-1.05-1.04-2.12-1.92-3.18-0.88-1.07-2.03-2.17-3.45-3.29s-3.15-2.34-5.2-3.66c-1.18-0.77-2.3-1.62-3.33-2.54-1.03-0.93-1.94-1.92-2.72-2.99s-1.4-2.2-1.85-3.4-0.68-2.46-0.68-3.78c0-1.34 0.17-2.66 0.5-3.95 0.33-1.28 0.81-2.44 1.45-3.46 0.64-1.03 1.42-1.85 2.36-2.48 0.93-0.63 2.02-0.94 3.25-0.94 1.04 0 2.02 0.2 2.96 0.61 0.93 0.41 1.75 1.02 2.45 1.83 0.71 0.82 1.27 1.82 1.69 3.01s0.63 2.57 0.63 4.16c0 0.77-0.06 1.59-0.17 2.46s-0.29 1.77-0.53 2.72l6.11 0.82c0.31-0.92 0.53-1.81 0.68-2.67 0.14-0.86 0.26-1.61 0.34-2.24 0.09-0.75 0.15-1.46 0.17-2.12zm11.62-9.27-7.1-0.14c0.15 7.82 0.26 15.6 0.33 23.36s0.1 15.58 0.1 23.46l5.12-0.07c0-4.36 0.06-8.74 0.19-13.14h12.88l-0.3 13.27h5.15c0.29-7.88 0.68-15.76 1.19-23.63 0.51-7.88 1.08-15.74 1.72-23.58l-7.43-0.06c0 9.59-0.07 19.15-0.2 28.65l-12.84 0.37c0.26-9.42 0.66-18.92 1.19-28.49z"/>
</g>
</g>
</svg>
